<mxfile host="app.diagrams.net" agent="Mozilla/5.0 (Windows NT 10.0; Win64; x64) AppleWebKit/537.36 (KHTML, like Gecko) Chrome/132.0.0.0 Safari/537.36" version="26.0.10">
  <diagram name="Pagina-1" id="enPjVOHeErrYy_rnH945">
    <mxGraphModel dx="1114" dy="600" grid="1" gridSize="10" guides="1" tooltips="1" connect="1" arrows="1" fold="1" page="1" pageScale="1" pageWidth="1169" pageHeight="827" math="0" shadow="0">
      <root>
        <mxCell id="0" />
        <mxCell id="1" parent="0" />
        <mxCell id="HLX8JtJwIRk1LIbwscoR-1" value="" style="edgeStyle=orthogonalEdgeStyle;rounded=0;orthogonalLoop=1;jettySize=auto;html=1;" edge="1" parent="1" source="HLX8JtJwIRk1LIbwscoR-2" target="HLX8JtJwIRk1LIbwscoR-4">
          <mxGeometry relative="1" as="geometry" />
        </mxCell>
        <mxCell id="HLX8JtJwIRk1LIbwscoR-2" value="inizio" style="ellipse;whiteSpace=wrap;html=1;" vertex="1" parent="1">
          <mxGeometry x="360" y="50" width="120" height="80" as="geometry" />
        </mxCell>
        <mxCell id="HLX8JtJwIRk1LIbwscoR-3" style="edgeStyle=orthogonalEdgeStyle;rounded=0;orthogonalLoop=1;jettySize=auto;html=1;" edge="1" parent="1" source="HLX8JtJwIRk1LIbwscoR-4" target="HLX8JtJwIRk1LIbwscoR-7">
          <mxGeometry relative="1" as="geometry" />
        </mxCell>
        <mxCell id="HLX8JtJwIRk1LIbwscoR-4" value="i=0" style="whiteSpace=wrap;html=1;" vertex="1" parent="1">
          <mxGeometry x="360" y="220" width="120" height="60" as="geometry" />
        </mxCell>
        <mxCell id="HLX8JtJwIRk1LIbwscoR-5" value="FALSE" style="edgeStyle=orthogonalEdgeStyle;rounded=0;orthogonalLoop=1;jettySize=auto;html=1;" edge="1" parent="1" source="HLX8JtJwIRk1LIbwscoR-7" target="HLX8JtJwIRk1LIbwscoR-9">
          <mxGeometry relative="1" as="geometry" />
        </mxCell>
        <mxCell id="HLX8JtJwIRk1LIbwscoR-6" value="TRUE" style="edgeStyle=orthogonalEdgeStyle;rounded=0;orthogonalLoop=1;jettySize=auto;html=1;" edge="1" parent="1" source="HLX8JtJwIRk1LIbwscoR-7" target="HLX8JtJwIRk1LIbwscoR-11">
          <mxGeometry relative="1" as="geometry" />
        </mxCell>
        <mxCell id="HLX8JtJwIRk1LIbwscoR-7" value="i&amp;lt;100" style="rhombus;whiteSpace=wrap;html=1;" vertex="1" parent="1">
          <mxGeometry x="380" y="350" width="80" height="80" as="geometry" />
        </mxCell>
        <mxCell id="HLX8JtJwIRk1LIbwscoR-8" style="edgeStyle=orthogonalEdgeStyle;rounded=0;orthogonalLoop=1;jettySize=auto;html=1;" edge="1" parent="1" source="HLX8JtJwIRk1LIbwscoR-9" target="HLX8JtJwIRk1LIbwscoR-33">
          <mxGeometry relative="1" as="geometry">
            <mxPoint x="260" y="700" as="targetPoint" />
          </mxGeometry>
        </mxCell>
        <mxCell id="HLX8JtJwIRk1LIbwscoR-9" value="write &quot;hai vinto&quot;" style="shape=parallelogram;perimeter=parallelogramPerimeter;whiteSpace=wrap;html=1;fixedSize=1;" vertex="1" parent="1">
          <mxGeometry x="200" y="360" width="120" height="60" as="geometry" />
        </mxCell>
        <mxCell id="HLX8JtJwIRk1LIbwscoR-10" value="" style="edgeStyle=orthogonalEdgeStyle;rounded=0;orthogonalLoop=1;jettySize=auto;html=1;" edge="1" parent="1" source="HLX8JtJwIRk1LIbwscoR-11" target="HLX8JtJwIRk1LIbwscoR-13">
          <mxGeometry relative="1" as="geometry" />
        </mxCell>
        <mxCell id="HLX8JtJwIRk1LIbwscoR-11" value="read D1,D2" style="shape=parallelogram;perimeter=parallelogramPerimeter;whiteSpace=wrap;html=1;fixedSize=1;" vertex="1" parent="1">
          <mxGeometry x="360" y="490" width="120" height="60" as="geometry" />
        </mxCell>
        <mxCell id="HLX8JtJwIRk1LIbwscoR-12" value="" style="edgeStyle=orthogonalEdgeStyle;rounded=0;orthogonalLoop=1;jettySize=auto;html=1;" edge="1" parent="1" source="HLX8JtJwIRk1LIbwscoR-13" target="HLX8JtJwIRk1LIbwscoR-15">
          <mxGeometry relative="1" as="geometry" />
        </mxCell>
        <mxCell id="HLX8JtJwIRk1LIbwscoR-13" value="write &quot;lancio dadi&quot;" style="shape=parallelogram;perimeter=parallelogramPerimeter;whiteSpace=wrap;html=1;fixedSize=1;" vertex="1" parent="1">
          <mxGeometry x="360" y="630" width="120" height="60" as="geometry" />
        </mxCell>
        <mxCell id="HLX8JtJwIRk1LIbwscoR-14" value="" style="edgeStyle=orthogonalEdgeStyle;rounded=0;orthogonalLoop=1;jettySize=auto;html=1;" edge="1" parent="1" source="HLX8JtJwIRk1LIbwscoR-15" target="HLX8JtJwIRk1LIbwscoR-18">
          <mxGeometry relative="1" as="geometry" />
        </mxCell>
        <mxCell id="HLX8JtJwIRk1LIbwscoR-15" value="somma= D1+D2" style="whiteSpace=wrap;html=1;" vertex="1" parent="1">
          <mxGeometry x="360" y="770" width="120" height="60" as="geometry" />
        </mxCell>
        <mxCell id="HLX8JtJwIRk1LIbwscoR-16" value="TRUE" style="edgeStyle=orthogonalEdgeStyle;rounded=0;orthogonalLoop=1;jettySize=auto;html=1;" edge="1" parent="1" source="HLX8JtJwIRk1LIbwscoR-18" target="HLX8JtJwIRk1LIbwscoR-20">
          <mxGeometry relative="1" as="geometry" />
        </mxCell>
        <mxCell id="HLX8JtJwIRk1LIbwscoR-17" value="" style="edgeStyle=orthogonalEdgeStyle;rounded=0;orthogonalLoop=1;jettySize=auto;html=1;" edge="1" parent="1" source="HLX8JtJwIRk1LIbwscoR-18" target="HLX8JtJwIRk1LIbwscoR-25">
          <mxGeometry relative="1" as="geometry" />
        </mxCell>
        <mxCell id="HLX8JtJwIRk1LIbwscoR-18" value="D1%2 ==0&lt;div&gt;AND&lt;/div&gt;&lt;div&gt;D2%2 ==0&lt;/div&gt;&lt;div&gt;AND&lt;/div&gt;&lt;div&gt;SOMMA&amp;gt;8&lt;/div&gt;" style="rhombus;whiteSpace=wrap;html=1;" vertex="1" parent="1">
          <mxGeometry x="335" y="900" width="170" height="130" as="geometry" />
        </mxCell>
        <mxCell id="HLX8JtJwIRk1LIbwscoR-19" style="edgeStyle=orthogonalEdgeStyle;rounded=0;orthogonalLoop=1;jettySize=auto;html=1;" edge="1" parent="1" source="HLX8JtJwIRk1LIbwscoR-20" target="HLX8JtJwIRk1LIbwscoR-22">
          <mxGeometry relative="1" as="geometry">
            <mxPoint x="670" y="428.79998779296875" as="targetPoint" />
          </mxGeometry>
        </mxCell>
        <mxCell id="HLX8JtJwIRk1LIbwscoR-20" value="i =100" style="whiteSpace=wrap;html=1;" vertex="1" parent="1">
          <mxGeometry x="610" y="935" width="120" height="60" as="geometry" />
        </mxCell>
        <mxCell id="HLX8JtJwIRk1LIbwscoR-21" style="edgeStyle=orthogonalEdgeStyle;rounded=0;orthogonalLoop=1;jettySize=auto;html=1;" edge="1" parent="1" source="HLX8JtJwIRk1LIbwscoR-22" target="HLX8JtJwIRk1LIbwscoR-7">
          <mxGeometry relative="1" as="geometry" />
        </mxCell>
        <mxCell id="HLX8JtJwIRk1LIbwscoR-22" value="" style="ellipse;whiteSpace=wrap;html=1;aspect=fixed;" vertex="1" parent="1">
          <mxGeometry x="650" y="370" width="40" height="40" as="geometry" />
        </mxCell>
        <mxCell id="HLX8JtJwIRk1LIbwscoR-23" value="TRUE" style="edgeStyle=orthogonalEdgeStyle;rounded=0;orthogonalLoop=1;jettySize=auto;html=1;" edge="1" parent="1" source="HLX8JtJwIRk1LIbwscoR-25" target="HLX8JtJwIRk1LIbwscoR-27">
          <mxGeometry relative="1" as="geometry" />
        </mxCell>
        <mxCell id="HLX8JtJwIRk1LIbwscoR-24" value="" style="edgeStyle=orthogonalEdgeStyle;rounded=0;orthogonalLoop=1;jettySize=auto;html=1;" edge="1" parent="1" source="HLX8JtJwIRk1LIbwscoR-25" target="HLX8JtJwIRk1LIbwscoR-29">
          <mxGeometry relative="1" as="geometry">
            <mxPoint x="230" y="1175" as="targetPoint" />
          </mxGeometry>
        </mxCell>
        <mxCell id="HLX8JtJwIRk1LIbwscoR-25" value="D1 == 6&lt;div&gt;OR&lt;/div&gt;&lt;div&gt;somma== 7&lt;/div&gt;" style="rhombus;whiteSpace=wrap;html=1;" vertex="1" parent="1">
          <mxGeometry x="335" y="1110" width="170" height="130" as="geometry" />
        </mxCell>
        <mxCell id="HLX8JtJwIRk1LIbwscoR-26" style="edgeStyle=orthogonalEdgeStyle;rounded=0;orthogonalLoop=1;jettySize=auto;html=1;" edge="1" parent="1" source="HLX8JtJwIRk1LIbwscoR-27" target="HLX8JtJwIRk1LIbwscoR-22">
          <mxGeometry relative="1" as="geometry">
            <Array as="points">
              <mxPoint x="840" y="1175" />
              <mxPoint x="840" y="390" />
            </Array>
          </mxGeometry>
        </mxCell>
        <mxCell id="HLX8JtJwIRk1LIbwscoR-27" value="i+=10" style="whiteSpace=wrap;html=1;" vertex="1" parent="1">
          <mxGeometry x="610" y="1145" width="120" height="60" as="geometry" />
        </mxCell>
        <mxCell id="HLX8JtJwIRk1LIbwscoR-28" value="" style="edgeStyle=orthogonalEdgeStyle;rounded=0;orthogonalLoop=1;jettySize=auto;html=1;" edge="1" parent="1" source="HLX8JtJwIRk1LIbwscoR-29" target="HLX8JtJwIRk1LIbwscoR-31">
          <mxGeometry relative="1" as="geometry" />
        </mxCell>
        <mxCell id="HLX8JtJwIRk1LIbwscoR-29" value="i=0" style="rounded=0;whiteSpace=wrap;html=1;" vertex="1" parent="1">
          <mxGeometry x="100" y="1145" width="120" height="60" as="geometry" />
        </mxCell>
        <mxCell id="HLX8JtJwIRk1LIbwscoR-30" style="edgeStyle=orthogonalEdgeStyle;rounded=0;orthogonalLoop=1;jettySize=auto;html=1;entryX=0;entryY=1;entryDx=0;entryDy=0;" edge="1" parent="1" source="HLX8JtJwIRk1LIbwscoR-31" target="HLX8JtJwIRk1LIbwscoR-33">
          <mxGeometry relative="1" as="geometry">
            <Array as="points">
              <mxPoint x="30" y="1035" />
              <mxPoint x="30" y="754" />
            </Array>
          </mxGeometry>
        </mxCell>
        <mxCell id="HLX8JtJwIRk1LIbwscoR-31" value="write &quot;hai perso&quot;" style="shape=parallelogram;perimeter=parallelogramPerimeter;whiteSpace=wrap;html=1;fixedSize=1;rounded=0;" vertex="1" parent="1">
          <mxGeometry x="100" y="1005" width="120" height="60" as="geometry" />
        </mxCell>
        <mxCell id="HLX8JtJwIRk1LIbwscoR-32" style="edgeStyle=orthogonalEdgeStyle;rounded=0;orthogonalLoop=1;jettySize=auto;html=1;" edge="1" parent="1" source="HLX8JtJwIRk1LIbwscoR-33" target="HLX8JtJwIRk1LIbwscoR-34">
          <mxGeometry relative="1" as="geometry" />
        </mxCell>
        <mxCell id="HLX8JtJwIRk1LIbwscoR-33" value="" style="ellipse;whiteSpace=wrap;html=1;aspect=fixed;" vertex="1" parent="1">
          <mxGeometry x="140" y="720" width="40" height="40" as="geometry" />
        </mxCell>
        <mxCell id="HLX8JtJwIRk1LIbwscoR-34" value="fine" style="ellipse;whiteSpace=wrap;html=1;" vertex="1" parent="1">
          <mxGeometry x="100" y="820" width="120" height="80" as="geometry" />
        </mxCell>
      </root>
    </mxGraphModel>
  </diagram>
</mxfile>
